<?xml version="1.0" standalone="no"?><!DOCTYPE svg PUBLIC "-//W3C//DTD SVG 1.1//EN" "http://www.w3.org/Graphics/SVG/1.1/DTD/svg11.dtd"><svg t="1713931947998" class="icon" viewBox="0 0 1024 1024" version="1.1" xmlns="http://www.w3.org/2000/svg" p-id="6327" xmlns:xlink="http://www.w3.org/1999/xlink" width="200" height="200"><path d="M896 441.6v-44.8c-6.4-128-44.8-224-108.8-294.4C716.8 38.4 627.2 0 512 0 396.8 0 307.2 38.4 236.8 102.4 172.8 172.8 134.4 268.8 128 396.8V448c0 185.6 38.4 332.8 108.8 435.2C307.2 972.8 403.2 1024 512 1024c108.8 0 204.8-51.2 268.8-140.8 76.8-102.4 115.2-243.2 108.8-428.8l6.4-12.8z m-64-38.4v25.6c-51.2-25.6-128-51.2-224-70.4V76.8c51.2 12.8 96 38.4 128 70.4 57.6 57.6 89.6 140.8 96 256z m-544-256c32-38.4 76.8-57.6 128-70.4v281.6C320 371.2 243.2 403.2 192 428.8v-25.6c6.4-115.2 38.4-198.4 96-256z m441.6 697.6c-51.2 76.8-128 115.2-217.6 115.2s-166.4-38.4-217.6-115.2c-64-83.2-96-198.4-102.4-345.6 44.8-25.6 172.8-83.2 320-83.2s275.2 57.6 320 83.2c-6.4 147.2-38.4 262.4-102.4 345.6z" p-id="6328" fill="#707070"></path></svg>