<?xml version="1.0" standalone="no"?><!DOCTYPE svg PUBLIC "-//W3C//DTD SVG 1.1//EN" "http://www.w3.org/Graphics/SVG/1.1/DTD/svg11.dtd"><svg t="1713931861862" class="icon" viewBox="0 0 1024 1024" version="1.1" xmlns="http://www.w3.org/2000/svg" p-id="3392" xmlns:xlink="http://www.w3.org/1999/xlink" width="200" height="200"><path d="M896 441.6v-44.8c-6.4-128-44.8-224-108.8-294.4C716.8 38.4 627.2 0 512 0 396.8 0 307.2 38.4 236.8 102.4 172.8 172.8 134.4 268.8 128 396.8V448c0 185.6 38.4 332.8 108.8 435.2C307.2 972.8 403.2 1024 512 1024c108.8 0 204.8-51.2 268.8-140.8C857.6 780.8 896 633.6 896 448v-6.4c0 6.4 0 6.4 0 0 0 6.4 0 0 0 0z m-64-38.4v25.6c-38.4-19.2-89.6-38.4-160-57.6V102.4c25.6 12.8 44.8 25.6 64 44.8 57.6 57.6 89.6 140.8 96 256zM512 64c32 0 64 6.4 96 12.8v281.6c-32-6.4-64-6.4-96-6.4s-64 0-96 6.4V76.8C448 70.4 480 64 512 64z m217.6 780.8c-51.2 76.8-128 115.2-217.6 115.2s-166.4-38.4-217.6-115.2c-64-83.2-96-198.4-102.4-345.6 44.8-25.6 172.8-83.2 320-83.2s275.2 57.6 320 83.2c-6.4 147.2-38.4 262.4-102.4 345.6z" p-id="3393" fill="#707070"></path></svg>